<svg height="512pt" viewBox="0 -25 512 512" width="512pt" xmlns="http://www.w3.org/2000/svg"><path d="m461.191406 183.039062c-2.195312-17.96875-8.902344-34.5-18.929687-48.464843 1.925781-6.695313 3.195312-13.605469 3.769531-20.597657 2.125-25.910156-5.351562-51.578124-21.0625-72.28125-2.503906-3.296874-7.207031-3.945312-10.507812-1.4375-3.300782 2.503907-3.945313 7.207032-1.441407 10.507813 13.472657 17.75 19.886719 39.761719 18.0625 61.980469-.210937 2.589844-.539062 5.160156-.96875 7.710937-19.070312-18.585937-45.105469-29.992187-73.617187-29.992187-4.425782 0-8.8125.285156-13.144532.820312-11.625-22.796875-29.066406-42.121094-50.667968-56.03125-1.585938-1.019531-3.195313-2.003906-4.8125-2.960937 17.398437-12.632813 38.929687-18.769531 60.539062-16.996094 15.234375 1.25 29.976563 6.363281 42.628906 14.789063 3.445313 2.296874 8.101563 1.359374 10.398438-2.085938 2.292969-3.449219 1.359375-8.105469-2.085938-10.398438-14.765624-9.828124-31.957031-15.796874-49.714843-17.253906-27.691407-2.265625-55.261719 6.589844-76.453125 24.398438-18.359375-8.164063-38.292969-12.429688-58.664063-12.429688-35.078125 0-68.910156 12.730469-95.261719 35.84375-3.117187 2.734375-3.425781 7.472656-.695312 10.585938 2.730469 3.113281 7.46875 3.421875 10.585938.691406 23.613281-20.710938 53.933593-32.121094 85.371093-32.121094 24.949219 0 49.167969 7.105469 70.042969 20.550782 18.171875 11.703124 33.058594 27.679687 43.4375 46.492187-11.46875 3.207031-22.351562 8.359375-32.253906 15.347656-16.066406 11.335938-28.503906 26.6875-36.191406 44.601563-14.976563 1.226562-29.359376 7.039062-40.964844 16.640625-12.742188 10.539062-21.65625 25.199219-25.105469 41.28125-.871094 4.050781 1.710937 8.039062 5.757813 8.90625 4.054687.871093 8.039062-1.710938 8.90625-5.761719 2.746093-12.796875 9.847656-24.46875 20-32.867188 10.277343-8.503906 23.296874-13.277343 36.65625-13.4375 3.09375-.039062 5.847656-1.96875 6.933593-4.867187 13.167969-35.132813 47.230469-58.738281 84.753907-58.738281 47.761718 0 87.433593 37.308594 90.316406 84.933594.230468 3.859374 3.363281 6.910156 7.226562 7.039062 24.09375.832031 42.964844 20.367188 42.964844 44.480469 0 24.550781-19.972656 44.523437-44.523438 44.523437h-186.949218c-25.851563 0-49-17.3125-56.296875-42.097656-1.171875-3.972656-5.339844-6.242188-9.316407-5.074219-3.972656 1.167969-6.242187 5.335938-5.074218 9.3125 4.542968 15.429688 13.980468 28.546875 26.296875 37.859375h-140.871094c-35.988281 0-65.265625-29.277344-65.265625-65.265625 0-17.035156 6.523438-33.152343 18.371094-45.382812 11.820312-12.199219 27.664062-19.242188 44.609375-19.824219 3.867187-.132812 6.996093-3.183594 7.230469-7.042969 1.445312-23.902343 9.492187-46.894531 23.269531-66.484375 2.382812-3.386718 1.570312-8.066406-1.820313-10.449218-3.386718-2.382813-8.066406-1.566407-10.445312 1.820312-14.117188 20.074219-22.847656 43.347656-25.433594 67.671875-18.304688 2.148437-35.214844 10.484375-48.183594 23.875-14.574218 15.042969-22.597656 34.867187-22.597656 55.816406 0 44.257813 36.007812 80.265625 80.265625 80.265625h372.210937c32.820313 0 59.523438-26.703125 59.523438-59.523437 0-29.988281-21.832031-54.683594-50.808594-58.878907zm0 0"/><path d="m412.671875 185.078125c.460937 2.402344.769531 4.867187.921875 7.328125.238281 3.980469 3.542969 7.046875 7.476562 7.046875.152344 0 .308594-.003906.460938-.011719 4.136719-.253906 7.285156-3.808594 7.03125-7.941406-.1875-3.101562-.578125-6.214844-1.160156-9.25-.78125-4.066406-4.707032-6.730469-8.78125-5.949219-4.066406.78125-6.730469 4.710938-5.949219 8.777344zm0 0"/><path d="m392.535156 133.390625c-3.585937-2.070313-8.171875-.839844-10.242187 2.746094-2.070313 3.585937-.84375 8.175781 2.742187 10.246093 8.574219 4.949219 15.761719 12.066407 20.785156 20.578126 1.398438 2.371093 3.898438 3.6875 6.464844 3.6875 1.296875 0 2.609375-.335938 3.808594-1.039063 3.566406-2.105469 4.75-6.707031 2.644531-10.273437-6.335937-10.730469-15.394531-19.703126-26.203125-25.945313zm0 0"/><path d="m458.40625 333.675781c-.011719 0-.019531 0-.027344 0h-.132812c-4.140625.015625-7.488282 3.382813-7.472656 7.527344.015624 4.132813 3.371093 7.472656 7.5 7.472656h.027343.132813c4.140625-.019531 7.488281-3.386719 7.472656-7.53125-.015625-4.132812-3.371094-7.46875-7.5-7.46875zm0 0"/><path d="m418.484375 341.144531c-.015625-4.132812-3.371094-7.46875-7.5-7.46875-.007813 0-.019531 0-.027344 0h-.132812c-4.140625.015625-7.484375 3.382813-7.472657 7.527344.015626 4.132813 3.371094 7.472656 7.5 7.472656h.03125.128907c4.140625-.019531 7.488281-3.386719 7.472656-7.53125zm0 0"/><path d="m144.292969 348.675781h.128906c4.140625-.019531 7.488281-3.386719 7.472656-7.53125-.015625-4.132812-3.371093-7.46875-7.5-7.46875-.007812 0-.019531 0-.027343 0h-.132813c-4.140625.015625-7.484375 3.382813-7.46875 7.527344.015625 4.128906 3.367187 7.472656 7.496094 7.472656zm0 0"/><path d="m104.472656 341.144531c-.015625-4.132812-3.367187-7.46875-7.496094-7.46875-.011718 0-.023437 0-.03125 0h-.128906c-4.144531.015625-7.488281 3.382813-7.472656 7.527344.015625 4.132813 3.371094 7.472656 7.5 7.472656h.027344.132812c4.140625-.019531 7.484375-3.386719 7.46875-7.53125zm0 0"/><path d="m420.132812 371.945312c-.011718 0-.019531 0-.027343 0h-.132813c-4.140625.019532-7.484375 3.386719-7.46875 7.53125.015625 4.132813 3.367188 7.46875 7.496094 7.46875h.03125.128906c4.140625-.015624 7.488282-3.382812 7.472656-7.527343-.015624-4.132813-3.371093-7.472657-7.5-7.472657zm0 0"/><path d="m380.210938 379.417969c-.015626-4.132813-3.371094-7.472657-7.5-7.472657-.007813 0-.019532 0-.027344 0h-.128906c-4.144532.019532-7.488282 3.386719-7.472657 7.53125.015625 4.132813 3.367188 7.46875 7.496094 7.46875h.03125.128906c4.144531-.015624 7.488281-3.382812 7.472657-7.527343zm0 0"/><path d="m106.121094 371.945312c-.007813 0-.019532 0-.027344 0h-.132812c-4.140626.019532-7.484376 3.386719-7.472657 7.53125.019531 4.132813 3.371094 7.46875 7.5 7.46875h.03125.128907c4.140624-.015624 7.488281-3.382812 7.472656-7.527343-.015625-4.132813-3.371094-7.472657-7.5-7.472657zm0 0"/><path d="m66.199219 379.417969c-.015625-4.140625-3.394531-7.503907-7.527344-7.472657h-.128906c-4.144531.019532-7.488281 3.386719-7.472657 7.53125.015626 4.132813 3.371094 7.46875 7.5 7.46875h.027344.128906c4.144532-.015624 7.488282-3.382812 7.472657-7.527343zm0 0"/><path d="m381.859375 410.21875c-.011719 0-.019531 0-.03125 0h-.128906c-4.140625.015625-7.484375 3.386719-7.472657 7.527344.015626 4.136718 3.371094 7.472656 7.5 7.472656h.03125.128907c4.140625-.015625 7.484375-3.386719 7.472656-7.527344-.015625-4.132812-3.371094-7.472656-7.5-7.472656zm0 0"/><path d="m334.4375 410.21875c-.007812 0-.019531 0-.027344 0h-.132812c-4.140625.015625-7.484375 3.386719-7.46875 7.527344.015625 4.136718 3.367187 7.472656 7.496094 7.472656h.03125.128906c4.140625-.015625 7.488281-3.386719 7.472656-7.527344-.015625-4.132812-3.371094-7.472656-7.5-7.472656zm0 0"/><path d="m67.847656 410.21875c-.007812 0-.019531 0-.027344 0h-.128906c-4.144531.015625-7.488281 3.386719-7.472656 7.527344.015625 4.136718 3.371094 7.472656 7.5 7.472656h.027344.128906c4.144531-.015625 7.488281-3.386719 7.472656-7.527344-.015625-4.132812-3.371094-7.472656-7.5-7.472656zm0 0"/><path d="m20.429688 410.21875c-.011719 0-.023438 0-.03125 0h-.128907c-4.140625.015625-7.488281 3.386719-7.472656 7.527344.015625 4.136718 3.371094 7.472656 7.5 7.472656h.027344.128906c4.144531-.015625 7.488281-3.386719 7.472656-7.527344-.015625-4.132812-3.367187-7.472656-7.496093-7.472656zm0 0"/><path d="m337.835938 363.847656c0-2.789062 0-11.277344-16.675782-36.410156-2.6875-4.050781-7.191406-6.46875-12.050781-6.46875-4.855469 0-9.363281 2.417969-12.050781 6.46875-16.675782 25.132812-16.675782 33.621094-16.675782 36.410156 0 15.839844 12.886719 28.726563 28.726563 28.726563s28.726563-12.886719 28.726563-28.726563zm-28.726563 13.722656c-7.566406 0-13.726563-6.15625-13.726563-13.722656 0-3.070312 3.605469-12.085937 13.726563-27.441406 10.117187 15.355469 13.726563 24.371094 13.726563 27.441406 0 7.566406-6.15625 13.722656-13.726563 13.722656zm0 0"/><path d="m242.0625 363.847656c0-2.789062 0-11.28125-16.675781-36.410156-2.6875-4.050781-7.191407-6.46875-12.050781-6.46875-4.859376 0-9.363282 2.417969-12.050782 6.46875-16.675781 25.132812-16.675781 33.621094-16.675781 36.410156 0 15.839844 12.886719 28.726563 28.726563 28.726563 15.839843 0 28.726562-12.886719 28.726562-28.726563zm-28.726562 13.722656c-7.566407 0-13.726563-6.15625-13.726563-13.722656 0-3.070312 3.605469-12.082031 13.726563-27.4375 10.117187 15.351563 13.726562 24.363282 13.726562 27.4375 0 7.566406-6.160156 13.722656-13.726562 13.722656zm0 0"/><path d="m261.222656 390.675781c-4.859375 0-9.363281 2.417969-12.050781 6.464844-16.675781 25.132813-16.675781 33.621094-16.675781 36.410156 0 15.839844 12.886718 28.726563 28.726562 28.726563s28.726563-12.886719 28.726563-28.726563c0-2.789062 0-11.273437-16.675781-36.40625-2.6875-4.050781-7.191407-6.46875-12.050782-6.46875zm0 56.601563c-7.566406 0-13.726562-6.15625-13.726562-13.726563 0-3.070312 3.605468-12.082031 13.726562-27.4375 10.117188 15.355469 13.726563 24.367188 13.726563 27.4375-.003907 7.566407-6.160157 13.726563-13.726563 13.726563zm0 0"/><path d="m165.449219 390.675781c-4.859375 0-9.363281 2.417969-12.050781 6.464844-16.675782 25.132813-16.675782 33.621094-16.675782 36.410156 0 15.839844 12.886719 28.726563 28.722656 28.726563 15.839844 0 28.726563-12.886719 28.726563-28.726563 0-2.789062 0-11.273437-16.675781-36.410156-2.683594-4.046875-7.191406-6.464844-12.046875-6.464844zm-.003907 56.601563c-7.566406 0-13.722656-6.15625-13.722656-13.726563 0-3.070312 3.605469-12.082031 13.726563-27.4375 10.117187 15.355469 13.722656 24.367188 13.722656 27.4375 0 7.566407-6.15625 13.726563-13.726563 13.726563zm0 0"/></svg>